Coordinates
version=1
nRows=19
nColumns=63
inDegrees=yes

Units are S.I. units (second, meters, Newtons, ...)
If the header above contains a line with 'inDegrees', this indicates whether rotational values are in degrees (yes) or radians (no).

endheader
time	pelvis_tilt	pelvis_list	pelvis_rotation	pelvis_tx	pelvis_ty	pelvis_tz	hip_flexion_r	hip_adduction_r	hip_rotation_r	knee_angle_r	knee_angle_r_beta	ankle_angle_r	subtalar_angle_r	mtp_angle_r	hip_flexion_l	hip_adduction_l	hip_rotation_l	knee_angle_l	knee_angle_l_beta	ankle_angle_l	subtalar_angle_l	mtp_angle_l	L5_S1_Flex_Ext	L5_S1_Lat_Bending	L5_S1_axial_rotation	L4_L5_Flex_Ext	L4_L5_Lat_Bending	L4_L5_axial_rotation	L3_L4_Flex_Ext	L3_L4_Lat_Bending	L3_L4_axial_rotation	L2_L3_Flex_Ext	L2_L3_Lat_Bending	L2_L3_axial_rotation	L1_L2_Flex_Ext	L1_L2_Lat_Bending	L1_L2_axial_rotation	L1_T12_Flex_Ext	L1_T12_Lat_Bending	L1_T12_axial_rotation	Abs_r3	Abs_r2	Abs_r1	Abs_t1	Abs_t2	neck_flexion	neck_bending	neck_rotation	arm_flex_r	arm_add_r	arm_rot_r	elbow_flex_r	pro_sup_r	wrist_flex_r	wrist_dev_r	arm_flex_l	arm_add_l	arm_rot_l	elbow_flex_l	pro_sup_l	wrist_flex_l	wrist_dev_l
0.000000	0.478838	-1.708405	96.501583	0.202418	0.647941	0.954681	3.388919	-0.435543	-8.039036	3.338978	0.058276	12.972985	8.995277	0.000000	7.201407	-1.683241	3.658534	6.721975	0.117321	15.887260	-3.348994	0.000000	0.067277	-0.146416	1.577161	0.124941	-0.194734	1.675733	0.110530	-0.355997	1.675733	0.076891	-0.355997	1.380015	0.062474	-0.298572	1.281443	0.038442	-0.226799	1.182870	0.480555	-1.656292	8.771694	0.000000	0.000000	14.827314	2.453842	-11.557530	-3.237257	-10.361416	20.120892	36.977955	75.025565	-10.652624	2.422075	10.476805	-12.245344	49.200773	32.136107	81.173510	-11.188868	0.933412
0.021739	0.069498	-1.702725	96.313910	0.202999	0.647863	0.953880	3.300408	-0.860532	-9.086820	3.545692	0.061884	13.122773	10.211225	0.000000	7.188143	-1.285238	3.213613	6.953599	0.121363	15.977372	-3.297423	0.000000	0.069382	-0.204695	1.609793	0.128850	-0.272245	1.710405	0.113988	-0.497696	1.710405	0.079297	-0.497696	1.408569	0.064428	-0.417414	1.307957	0.039645	-0.317073	1.207345	0.495591	-2.315553	8.953185	0.000000	0.000000	14.720138	2.905578	-11.414272	-3.332486	-10.184464	20.185101	37.101478	74.864909	-10.400000	2.206491	10.356746	-12.754041	49.433007	32.548791	80.704588	-10.763849	1.924194
0.043478	-0.261198	-1.710241	96.175095	0.203473	0.647738	0.953293	3.245898	-1.205900	-9.885497	3.705725	0.064677	13.263702	11.188217	0.000000	7.201755	-0.960162	2.858473	7.147049	0.124740	16.057408	-3.260062	0.000000	0.071302	-0.251725	1.634694	0.132414	-0.334794	1.736862	0.117142	-0.612044	1.736862	0.081491	-0.612044	1.430357	0.066211	-0.513317	1.328189	0.040742	-0.389922	1.226020	0.509301	-2.847561	9.091677	0.000000	0.000000	14.671724	3.240730	-11.340743	-3.416781	-10.038863	20.196885	37.221333	74.757717	-10.189639	2.057986	10.260502	-13.156613	49.572426	32.894826	80.388700	-10.444975	2.687451
0.065217	-0.519678	-1.729051	96.079613	0.203853	0.647574	0.952897	3.221556	-1.477906	-10.456400	3.823214	0.066728	13.394656	11.944538	0.000000	7.238493	-0.702516	2.583618	7.305280	0.127501	16.128521	-3.234015	0.000000	0.073035	-0.288448	1.652714	0.135634	-0.383636	1.756008	0.119990	-0.701332	1.756008	0.083472	-0.701332	1.446124	0.067821	-0.588203	1.342830	0.041732	-0.446806	1.239535	0.521684	-3.262979	9.191897	0.000000	0.000000	14.674697	3.468525	-11.327902	-3.490618	-9.922140	20.163575	37.336743	74.698876	-10.017468	1.970371	10.185383	-13.462531	49.627421	33.179486	80.209944	-10.220965	3.244549
0.086957	-0.712372	-1.757257	96.021939	0.204147	0.647379	0.952670	3.223548	-1.682811	-10.820864	3.902297	0.068108	13.514522	12.498473	0.000000	7.294604	-0.506804	2.379552	7.431247	0.129700	16.191868	-3.216383	0.000000	0.074583	-0.315807	1.664701	0.138508	-0.420023	1.768745	0.122532	-0.767852	1.768745	0.085241	-0.767852	1.456614	0.069258	-0.643993	1.352570	0.042617	-0.489184	1.248526	0.532738	-3.572467	9.258570	0.000000	0.000000	14.721683	3.598194	-11.366712	-3.554473	-9.831823	20.092502	37.446935	74.683275	-9.879415	1.937456	10.128699	-13.681270	49.606382	33.408041	80.152418	-10.080540	3.616857
0.108696	-0.845708	-1.792957	95.996548	0.204368	0.647159	0.952591	3.248038	-1.826875	-11.000221	3.947111	0.068890	13.622183	12.868307	0.000000	7.366338	-0.367529	2.236779	7.527902	0.131387	16.248604	-3.204271	0.000000	0.075944	-0.334744	1.671507	0.141036	-0.445209	1.775977	0.124769	-0.813896	1.775977	0.086797	-0.813896	1.462569	0.070522	-0.682609	1.358100	0.043394	-0.518518	1.253630	0.542462	-3.786688	9.296422	0.000000	0.000000	14.805305	3.638965	-11.448131	-3.608821	-9.765440	19.990999	37.551132	74.705802	-9.771410	1.953055	10.087760	-13.822300	49.517699	33.585764	80.200220	-10.012420	3.825739
0.130435	-0.926117	-1.834253	95.997915	0.204525	0.646922	0.952635	3.291193	-1.916358	-11.015807	3.961794	0.069146	13.716525	13.072323	0.000000	7.449943	-0.279195	2.145802	7.598201	0.132614	16.299882	-3.194780	0.000000	0.077119	-0.346202	1.673981	0.143217	-0.460448	1.778605	0.126698	-0.841755	1.778605	0.088139	-0.841755	1.464733	0.071613	-0.705974	1.360110	0.044066	-0.536266	1.255486	0.550852	-3.916302	9.310180	0.000000	0.000000	14.918188	3.600067	-11.563122	-3.654139	-9.720518	19.866396	37.648559	74.761345	-9.689378	2.010977	10.059876	-13.895095	49.369762	33.717928	80.337449	-10.005325	3.892564
0.152174	-0.960026	-1.879243	96.020514	0.204629	0.646675	0.952783	3.349178	-1.957521	-10.888954	3.950481	0.068949	13.796431	13.128808	0.000000	7.541668	-0.236304	2.097126	7.645097	0.133432	16.346860	-3.185013	0.000000	0.078107	-0.351123	1.672972	0.145052	-0.466993	1.777533	0.128321	-0.853720	1.777533	0.089268	-0.853720	1.463851	0.072530	-0.716010	1.359290	0.044630	-0.543889	1.254729	0.557908	-3.971972	9.304570	0.000000	0.000000	15.052958	3.490730	-11.702645	-3.690903	-9.694586	19.726025	37.738442	74.844793	-9.629250	2.105035	10.042356	-13.909128	49.170963	33.809804	80.548202	-10.047975	3.838697
0.173913	-0.953866	-1.926027	96.058820	0.204690	0.646425	0.953010	3.418158	-1.956623	-10.640997	3.917312	0.068370	13.860788	13.056046	0.000000	7.637760	-0.233361	2.081255	7.671544	0.133894	16.390691	-3.172073	0.000000	0.078907	-0.350450	1.669331	0.146539	-0.466098	1.773664	0.129637	-0.852084	1.773664	0.090183	-0.852084	1.460665	0.073273	-0.714637	1.356331	0.045088	-0.542847	1.251998	0.563627	-3.964359	9.284318	0.000000	0.000000	15.202238	3.320181	-11.857660	-3.719588	-9.685170	19.577217	37.820004	74.951032	-9.586953	2.229040	10.032510	-13.873870	48.929689	33.866664	80.816578	-10.129089	3.685506
0.195652	-0.914065	-1.972706	96.107307	0.204720	0.646178	0.953295	3.494299	-1.919925	-10.293269	3.866422	0.067482	13.908480	12.872321	0.000000	7.734470	-0.264868	2.088692	7.680498	0.134050	16.432531	-3.153063	0.000000	0.079521	-0.345125	1.663907	0.147678	-0.459016	1.767901	0.130644	-0.839137	1.767901	0.090884	-0.839137	1.455918	0.073843	-0.703779	1.351924	0.045438	-0.534599	1.247930	0.568008	-3.904124	9.254150	0.000000	0.000000	15.358654	3.097651	-12.019128	-3.740670	-9.689800	19.427304	37.892471	75.074952	-9.558415	2.376804	10.027647	-13.798794	48.654333	33.893781	81.126674	-10.237389	3.454357
0.217391	-0.847052	-2.017379	96.160451	0.204729	0.645943	0.953616	3.573767	-1.853687	-9.867104	3.801950	0.066357	13.938391	12.595919	0.000000	7.828045	-0.325330	2.109941	7.674911	0.133952	16.473535	-3.125085	0.000000	0.079946	-0.336091	1.657549	0.148468	-0.447001	1.761146	0.131344	-0.817172	1.761146	0.091371	-0.817172	1.450356	0.074238	-0.685357	1.346759	0.045681	-0.520605	1.243162	0.571048	-3.801930	9.218791	0.000000	0.000000	15.514831	2.832368	-12.178010	-3.754626	-9.706002	19.283617	37.955068	75.211441	-9.539564	2.542137	10.025079	-13.693373	48.353283	33.896428	81.462590	-10.361593	3.166617
0.239130	-0.773799	-2.055302	96.195029	0.204779	0.645722	0.953906	3.646791	-1.777349	-9.404842	3.731060	0.065119	13.958516	12.256949	0.000000	7.906706	-0.401503	2.077316	7.660665	0.133704	16.530977	-3.024556	0.000000	0.079740	-0.326970	1.654175	0.148084	-0.434871	1.757561	0.131004	-0.794996	1.757561	0.091134	-0.794996	1.447403	0.074046	-0.666758	1.344017	0.045563	-0.506477	1.240631	0.569572	-3.698754	9.200023	0.000000	0.000000	15.651384	2.542305	-12.276623	-3.744988	-9.730870	19.239795	38.002950	75.308174	-9.527003	2.701422	10.022188	-13.612160	48.087118	33.928185	81.712067	-10.458108	2.871876
0.260870	-0.680487	-2.082467	96.218049	0.204830	0.645548	0.954146	3.706098	-1.673227	-8.855931	3.651075	0.063723	13.929844	11.783665	0.000000	7.967536	-0.500732	2.072642	7.639590	0.133336	16.584062	-2.962081	0.000000	0.079908	-0.315016	1.651399	0.148398	-0.418972	1.754611	0.131282	-0.765931	1.754611	0.091327	-0.765931	1.444974	0.074203	-0.642382	1.341761	0.045660	-0.487961	1.238549	0.570778	-3.563529	9.184584	0.000000	0.000000	15.754108	2.210755	-12.338136	-3.744145	-9.757757	19.180142	38.041403	75.495300	-9.513220	2.896563	9.989017	-13.500819	47.739387	33.918546	82.006331	-10.545364	2.559418
0.282609	-0.589038	-2.100245	96.207707	0.204929	0.645426	0.954335	3.759021	-1.569696	-8.339421	3.578589	0.062458	13.883065	11.363059	0.000000	8.004951	-0.606258	2.019950	7.607848	0.132782	16.636723	-2.868823	0.000000	0.079801	-0.303633	1.654755	0.148199	-0.403831	1.758177	0.131106	-0.738252	1.758177	0.091205	-0.738252	1.447911	0.074103	-0.619168	1.344488	0.045598	-0.470327	1.241066	0.570013	-3.434753	9.203251	0.000000	0.000000	15.831138	1.875160	-12.386816	-3.738955	-9.783655	19.146886	38.051158	75.642000	-9.464496	3.076740	9.954151	-13.396222	47.399017	33.901311	82.277354	-10.571305	2.337285
0.304348	-0.491736	-2.105671	96.182455	0.205029	0.645355	0.954471	3.797979	-1.457935	-7.840607	3.510840	0.061276	13.805983	10.929836	0.000000	8.020294	-0.722206	1.945799	7.570637	0.132133	16.692975	-2.754417	0.000000	0.079371	-0.291233	1.659786	0.147399	-0.387340	1.763522	0.130398	-0.708103	1.763522	0.090713	-0.708103	1.452312	0.073704	-0.593882	1.348576	0.045352	-0.451120	1.244839	0.566936	-3.294484	9.231229	0.000000	0.000000	15.878146	1.534165	-12.407366	-3.734635	-9.816204	19.130165	38.053948	75.787998	-9.413454	3.239403	9.913481	-13.283736	47.070718	33.852648	82.507367	-10.568088	2.135610
0.326087	-0.393888	-2.099862	96.139087	0.205137	0.645333	0.954544	3.822420	-1.344348	-7.387801	3.450208	0.060217	13.711057	10.522507	0.000000	8.014129	-0.842368	1.856497	7.530600	0.131434	16.745896	-2.640665	0.000000	0.078969	-0.278834	1.667893	0.146653	-0.370849	1.772136	0.129738	-0.677956	1.772136	0.090253	-0.677956	1.459406	0.073330	-0.568597	1.355163	0.045123	-0.431913	1.250919	0.564066	-3.154221	9.276318	0.000000	0.000000	15.894356	1.203446	-12.410566	-3.737642	-9.841733	19.084084	38.056776	75.951822	-9.358086	3.382131	9.867159	-13.172165	46.752585	33.792604	82.714206	-10.529661	1.997407
0.347826	-0.298420	-2.086708	96.096353	0.205231	0.645345	0.954581	3.835569	-1.232574	-6.976795	3.398771	0.059320	13.600791	10.106605	0.000000	7.998802	-0.959288	1.785016	7.498597	0.130875	16.791784	-2.549892	0.000000	0.078589	-0.266817	1.674936	0.145947	-0.354866	1.779619	0.129113	-0.648738	1.779619	0.089819	-0.648738	1.465569	0.072977	-0.544093	1.360885	0.044906	-0.413299	1.256202	0.561351	-3.018284	9.315491	0.000000	0.000000	15.895696	0.886325	-12.388114	-3.737578	-9.863934	19.034895	38.059210	76.117732	-9.319455	3.472787	9.819571	-13.066718	46.468302	33.726649	82.905094	-10.505476	1.878318
0.369565	-0.208096	-2.056627	96.055223	0.205308	0.645394	0.954591	3.827805	-1.125654	-6.628544	3.361524	0.058670	13.484705	9.701071	0.000000	7.964279	-1.071820	1.716456	7.473544	0.130438	16.839055	-2.461529	0.000000	0.076306	-0.255581	1.681522	0.141708	-0.339923	1.786617	0.125364	-0.621419	1.786617	0.087210	-0.621419	1.471332	0.070858	-0.521181	1.366237	0.043601	-0.395895	1.261142	0.545048	-2.891182	9.352122	0.000000	0.000000	15.883017	0.598206	-12.347454	-3.724129	-9.889695	19.016352	38.059414	76.227900	-9.297434	3.504965	9.783943	-12.980081	46.253455	33.672853	83.036130	-10.479094	1.773407
0.391304	-0.124223	-2.040437	96.015999	0.205372	0.645438	0.954581	3.832908	-1.030231	-6.384247	3.344878	0.058379	13.367573	9.364664	0.000000	7.951410	-1.178496	1.600703	7.470806	0.130390	16.902156	-2.309517	0.000000	0.076906	-0.245845	1.687177	0.142822	-0.326974	1.792625	0.126349	-0.597749	1.792625	0.087896	-0.597749	1.476280	0.071415	-0.501328	1.370831	0.043944	-0.380815	1.265383	0.549332	-2.781053	9.383571	0.000000	0.000000	15.850916	0.351055	-12.276205	-3.704879	-9.921864	19.052178	38.066256	76.236282	-9.295266	3.493461	9.741327	-12.919344	46.075978	33.650462	83.128677	-10.453799	1.697867
